<?xml version="1.0" encoding="iso-8859-1"?>
<!-- Generator: Adobe Illustrator 19.0.0, SVG Export Plug-In . SVG Version: 6.00 Build 0)  -->
<svg version="1.1" id="Layer_1" xmlns="http://www.w3.org/2000/svg" xmlns:xlink="http://www.w3.org/1999/xlink" x="0px" y="0px"
	 viewBox="0 0 511.999 511.999" style="enable-background:new 0 0 511.999 511.999;" xml:space="preserve">
<circle style="fill:#263740;" cx="255.999" cy="255.999" r="255.999"/>
<g>
	<rect x="240.003" y="360" style="fill:#CC584C;" width="47.999" height="16"/>
	<rect x="147.997" y="327.997" style="fill:#CC584C;" width="143.996" height="16"/>
	<rect x="216.004" y="392.002" style="fill:#CC584C;" width="43.997" height="16"/>
	<rect x="104" y="104" style="fill:#CC584C;" width="88.004" height="16"/>
	<rect x="104" y="68" style="fill:#CC584C;" width="39.995" height="16"/>
	<rect x="160.002" y="392.002" style="fill:#CC584C;" width="43.997" height="16"/>
	<path style="fill:#CC584C;" d="M472,328v16h24.472c1.916-5.252,3.604-10.6,5.188-16H472z"/>
	<path style="fill:#CC584C;" d="M464,232v16h47.796c-0.164-5.376-0.46-10.716-0.952-16H464z"/>
	<rect x="147.997" y="360" style="fill:#CC584C;" width="68" height="16"/>
	<rect x="104" y="136.003" style="fill:#CC584C;" width="156.001" height="16"/>
	<rect x="167.995" y="455.997" style="fill:#CC584C;" width="68" height="16"/>
	<rect x="255.999" y="455.997" style="fill:#CC584C;" width="20" height="16"/>
	<rect x="104" y="424.005" style="fill:#CC584C;" width="88.004" height="16"/>
	<rect x="104" y="392.002" style="fill:#CC584C;" width="43.997" height="16"/>
	<path style="fill:#CC584C;" d="M300,488H147.768c14.184,6.628,29.056,12.04,44.512,16H300V488z"/>
	<rect x="208.001" y="167.995" style="fill:#CC584C;" width="28" height="16"/>
	<rect x="368.003" y="264.003" style="fill:#CC584C;" width="43.997" height="16"/>
	<path style="fill:#CC584C;" d="M3.132,216H80v-16H6.22C5.04,205.28,3.98,210.6,3.132,216z"/>
	<rect x="104" y="167.995" style="fill:#CC584C;" width="88.004" height="16"/>
	<rect x="84.003" y="232" style="fill:#CC584C;" width="191.995" height="16"/>
	<rect x="255.999" y="68" style="fill:#CC584C;" width="20" height="16"/>
	<path style="fill:#CC584C;" d="M6.22,312H192v-16H3.132C3.98,301.4,5.04,306.72,6.22,312z"/>
	<rect x="255.999" y="167.995" style="fill:#CC584C;" width="80.001" height="16"/>
</g>
<g>
	<rect x="312.001" y="199.998" style="fill:#F5F5F5;" width="140.004" height="16"/>
	<path style="fill:#F5F5F5;" d="M388,152h101.916c-2.416-5.428-5-10.772-7.772-16h-94.144v16H388z"/>
	<path style="fill:#F5F5F5;" d="M428,280h82.844c0.492-5.284,0.788-10.624,0.952-16h-83.797v16H428z"/>
	<rect x="320.004" y="264.003" style="fill:#F5F5F5;" width="36" height="16"/>
	<rect x="147.997" y="264.003" style="fill:#F5F5F5;" width="156.001" height="16"/>
	<rect x="312.001" y="104" style="fill:#F5F5F5;" width="140.004" height="16"/>
	<rect x="160.002" y="68" style="fill:#F5F5F5;" width="80.001" height="16"/>
	<rect x="212.002" y="104" style="fill:#F5F5F5;" width="80.001" height="16"/>
	<rect x="299.997" y="68" style="fill:#F5F5F5;" width="80.001" height="16"/>
	<path style="fill:#F5F5F5;" d="M508.868,296H208v16h297.78C506.96,306.72,508.02,301.4,508.868,296z"/>
	<rect x="383.999" y="327.997" style="fill:#F5F5F5;" width="68" height="16"/>
	<path style="fill:#F5F5F5;" d="M78.108,440H88v-16H62.928C67.76,429.548,72.824,434.888,78.108,440z"/>
	<rect x="312.001" y="360" style="fill:#F5F5F5;" width="140.004" height="16"/>
	<path style="fill:#F5F5F5;" d="M436,184.001h65.664c-1.58-5.4-3.264-10.752-5.188-16h-60.476v16H436z"/>
	<rect x="292.004" y="232" style="fill:#F5F5F5;" width="160.002" height="16"/>
	<rect x="292.004" y="136.003" style="fill:#F5F5F5;" width="72" height="16"/>
	<rect x="160.002" y="199.998" style="fill:#F5F5F5;" width="140.005" height="16"/>
	<rect x="355.998" y="167.995" style="fill:#F5F5F5;" width="32" height="16"/>
	<rect x="303.998" y="327.997" style="fill:#F5F5F5;" width="68" height="16"/>
	<path style="fill:#F5F5F5;" d="M312,456v16h81.328c7.756-4.94,15.228-10.276,22.384-16H312z"/>
	<path style="fill:#F5F5F5;" d="M20,248v-16H1.156c-0.492,5.284-0.788,10.624-0.952,16L20,248L20,248z"/>
	<path style="fill:#F5F5F5;" d="M312,488v16h7.72c15.46-3.96,30.328-9.372,44.516-16H312z"/>
	<path style="fill:#F5F5F5;" d="M156,456H96.288c7.16,5.724,14.628,11.06,22.384,16h37.328v-16H156z"/>
	<rect x="223.997" y="424.005" style="fill:#F5F5F5;" width="64.005" height="16"/>
	<path style="fill:#F5F5F5;" d="M476,360v16h6.14c2.772-5.228,5.356-10.568,7.772-16H476z"/>
	<rect x="312.001" y="424.005" style="fill:#F5F5F5;" width="64.005" height="16"/>
	<path style="fill:#F5F5F5;" d="M492,200v16h16.868c-0.848-5.4-1.908-10.72-3.084-16H492z"/>
	<path style="fill:#F5F5F5;" d="M280,392v16h181.972c3.832-5.18,7.44-10.532,10.876-16H280z"/>
	<rect x="104" y="199.998" style="fill:#F5F5F5;" width="39.995" height="16"/>
	<path style="fill:#F5F5F5;" d="M80,360H22.084c2.42,5.432,5,10.772,7.776,16h50.14v-16H80z"/>
	<path style="fill:#F5F5F5;" d="M80,408v-16H39.153c3.436,5.468,7.048,10.82,10.876,16H80z"/>
	<rect x="28" y="232" style="fill:#F5F5F5;" width="36" height="16"/>
	<path style="fill:#F5F5F5;" d="M128,328H10.336c1.58,5.4,3.268,10.752,5.188,16H128V328z"/>
	<path style="fill:#F5F5F5;" d="M39.153,120H80V104H50.028C46.196,109.18,42.588,114.533,39.153,120z"/>
	<path style="fill:#F5F5F5;" d="M1.156,280H124v-16H0.204C0.368,269.376,0.664,274.717,1.156,280z"/>
	<path style="fill:#F5F5F5;" d="M80,152v-16H29.859c-2.776,5.228-5.356,10.572-7.776,16H80z"/>
	<path style="fill:#F5F5F5;" d="M80,184.001v-16H15.528c-1.92,5.252-3.608,10.6-5.188,16H80z"/>
</g>
<g>
</g>
<g>
</g>
<g>
</g>
<g>
</g>
<g>
</g>
<g>
</g>
<g>
</g>
<g>
</g>
<g>
</g>
<g>
</g>
<g>
</g>
<g>
</g>
<g>
</g>
<g>
</g>
<g>
</g>
</svg>
