<?xml version="1.0" encoding="iso-8859-1"?>
<!-- Generator: Adobe Illustrator 19.0.0, SVG Export Plug-In . SVG Version: 6.00 Build 0)  -->
<svg version="1.1" id="Layer_1" xmlns="http://www.w3.org/2000/svg" xmlns:xlink="http://www.w3.org/1999/xlink" x="0px" y="0px"
	 viewBox="0 0 512 512" style="enable-background:new 0 0 512 512;" xml:space="preserve">
<path style="fill:#74DBC9;" d="M469.333,8.531H196.267c-23.526,0-42.667,19.14-42.667,42.667v170.667
	c0,23.526,19.14,42.667,42.667,42.667h133.444l100.027,83.356c5.459,4.55,13.996,0.514,13.996-6.556v-76.8h25.6
	c23.526,0,42.667-19.14,42.667-42.667V51.198C512,27.671,492.86,8.531,469.333,8.531z"/>
<g>
	<path style="fill:#6AC8B7;" d="M179.2,221.865V51.198c0-23.526,19.14-42.667,42.667-42.667h-25.6
		c-23.526,0-42.667,19.14-42.667,42.667v170.667c0,23.526,19.14,42.667,42.667,42.667h25.6
		C198.34,264.531,179.2,245.392,179.2,221.865z"/>
	<path style="fill:#6AC8B7;" d="M355.311,264.531h-25.6l100.027,83.356c5.459,4.55,13.996,0.514,13.996-6.556v-3.115
		L355.311,264.531z"/>
</g>
<g>
	<path style="fill:#FFFFFF;" d="M435.2,85.331h-76.8c-4.713,0-8.533-3.821-8.533-8.533c0-4.713,3.821-8.533,8.533-8.533h76.8
		c4.713,0,8.533,3.821,8.533,8.533C443.733,81.51,439.913,85.331,435.2,85.331z"/>
	<path style="fill:#FFFFFF;" d="M366.933,153.598H230.4c-4.713,0-8.533-3.821-8.533-8.533c0-4.713,3.821-8.533,8.533-8.533h136.533
		c4.713,0,8.533,3.821,8.533,8.533C375.467,149.777,371.646,153.598,366.933,153.598z"/>
	<path style="fill:#FFFFFF;" d="M401.067,221.865H230.4c-4.713,0-8.533-3.821-8.533-8.533c0-4.713,3.821-8.533,8.533-8.533h170.667
		c4.713,0,8.533,3.821,8.533,8.533C409.6,218.044,405.779,221.865,401.067,221.865z"/>
	<path style="fill:#FFFFFF;" d="M435.2,153.598h-42.667c-4.713,0-8.533-3.821-8.533-8.533c0-4.713,3.821-8.533,8.533-8.533H435.2
		c4.713,0,8.533,3.821,8.533,8.533C443.733,149.777,439.913,153.598,435.2,153.598z"/>
</g>
<path style="fill:#C3C4C6;" d="M315.733,68.265H42.667C19.14,68.265,0,87.405,0,110.931v170.667
	c0,23.526,19.14,42.667,42.667,42.667h17.067v76.8c0,7.07,8.537,11.105,13.997,6.556l100.027-83.356h141.977
	c23.526,0,42.667-19.14,42.667-42.667V110.931C358.4,87.405,339.26,68.265,315.733,68.265z"/>
<path style="fill:#AFB0B4;" d="M85.333,324.265H68.267c-23.526,0-42.667-19.14-42.667-42.667V110.931
	c0-23.526,19.14-42.667,42.667-42.667h-25.6C19.14,68.264,0,87.405,0,110.931v170.667c0,23.526,19.14,42.667,42.667,42.667h17.067
	v76.8c0,7.07,8.537,11.105,13.997,6.556l11.603-9.669V324.265z"/>
<g>
	<circle style="fill:#FFFFFF;" cx="102.4" cy="196.267" r="25.6"/>
	<circle style="fill:#FFFFFF;" cx="179.2" cy="196.267" r="25.6"/>
	<circle style="fill:#FFFFFF;" cx="256" cy="196.267" r="25.6"/>
</g>
<g>
	<path style="fill:#F07B52;" d="M183.467,477.869h-46.933v-72.533c0-7.069-5.731-12.8-12.8-12.8c-7.069,0-12.8,5.731-12.8,12.8
		v85.333c0,7.069,5.731,12.8,12.8,12.8h59.733c7.069,0,12.8-5.731,12.8-12.8S190.535,477.869,183.467,477.869z"/>
	<path style="fill:#F07B52;" d="M230.4,392.535c-7.069,0-12.8,5.731-12.8,12.8v85.333c0,7.069,5.731,12.8,12.8,12.8
		s12.8-5.731,12.8-12.8v-85.333C243.2,398.266,237.469,392.535,230.4,392.535z"/>
	<path style="fill:#F07B52;" d="M354.621,393.451c-6.566-2.625-14.013,0.567-16.639,7.131l-22.249,55.622l-22.249-55.622
		c-1.967-4.916-6.915-8.178-12.209-8.044c-5.355,0.135-10.165,3.722-11.837,8.806c-0.934,2.843-0.834,5.967,0.278,8.746
		l34.133,85.333c1.923,4.809,6.706,8.046,11.885,8.046s9.962-3.238,11.885-8.046l34.133-85.333
		C364.378,403.525,361.184,396.076,354.621,393.451z"/>
	<path style="fill:#F07B52;" d="M448,477.869h-38.4v-17.067h21.333c7.069,0,12.8-5.731,12.8-12.8s-5.731-12.8-12.8-12.8H409.6
		v-17.067H448c7.069,0,12.8-5.731,12.8-12.8s-5.731-12.8-12.8-12.8h-51.2c-7.069,0-12.8,5.731-12.8,12.8v85.333
		c0,7.069,5.731,12.8,12.8,12.8H448c7.069,0,12.8-5.731,12.8-12.8S455.069,477.869,448,477.869z"/>
</g>
<g>
</g>
<g>
</g>
<g>
</g>
<g>
</g>
<g>
</g>
<g>
</g>
<g>
</g>
<g>
</g>
<g>
</g>
<g>
</g>
<g>
</g>
<g>
</g>
<g>
</g>
<g>
</g>
<g>
</g>
</svg>
