<svg id="Layer_5" enable-background="new 0 0 64 64" height="512" viewBox="0 0 64 64" width="512" xmlns="http://www.w3.org/2000/svg" xmlns:xlink="http://www.w3.org/1999/xlink"><linearGradient id="SVGID_1_" gradientUnits="userSpaceOnUse" x1="32" x2="32" y1="63" y2="1"><stop offset="0" stop-color="#9f2fff"/><stop offset="1" stop-color="#0bb1d3"/></linearGradient><path d="m57 57h2v2h-2zm-4 2h2v-2h-2zm-26-34h2v-2h-2zm-4 0h2v-2h-2zm8 0h2v-2h-2zm32-1v36c0 1.654-1.346 3-3 3h-46c-1.654 0-3-1.346-3-3v-16.852c-1.091 1.177-2.612 1.852-4.226 1.852-3.183 0-5.774-2.59-5.774-5.774 0-1.71.751-3.322 2.061-4.422l10.121-8.497c-1.384-2.46-2.182-5.29-2.182-8.307 0-9.374 7.626-17 17-17s17 7.626 17 17c0 1.025-.107 2.024-.281 3h15.281c1.654 0 3 1.346 3 3zm-18.753-1c-.439 1.425-1.074 2.761-1.851 4h18.604v-3c0-.551-.448-1-1-1zm-31.247-5c0 8.271 6.729 15 15 15 2.528 0 4.908-.635 7-1.744v-.256h.452c4.503-2.591 7.548-7.442 7.548-13 0-8.271-6.729-15-15-15s-15 6.729-15 15zm5.005 13.721c-1.427-1.043-2.684-2.299-3.726-3.726l-9.932 8.339c-.856.72-1.347 1.773-1.347 2.892 0 2.081 1.693 3.774 3.774 3.774 1.118 0 2.171-.491 2.891-1.347zm42.995 28.279v-31h-20.062c-.613.72-1.283 1.391-2.006 2h18.068c1.103 0 2 .897 2 2v14c0 1.103-.897 2-2 2h-20c-1.103 0-2-.897-2-2v-13.526c-2.138.971-4.503 1.526-7 1.526-3.016 0-5.846-.798-8.305-2.182l-3.787 4.51c.314-.206.689-.328 1.092-.328h2c1.103 0 2 .897 2 2v6c0 1.103-.897 2-2 2h-2c-1.103 0-2-.897-2-2v-6c0-.276.056-.539.158-.779l-2.158 2.57v19.209c0 .551.448 1 1 1h46c.552 0 1-.449 1-1zm-41.999-15-.001-6h-2v6zm17.999 2h20v-14h-20zm-30.707-8.707 1.414 1.414 1.343-1.343-1.414-1.414zm5.586-5.586 1.414 1.414 1.414-1.414-1.414-1.414zm-2.828 2.829 1.414 1.414 1.414-1.414-1.414-1.414zm5.949-17.536c0-7.168 5.832-13 13-13s13 5.832 13 13-5.832 13-13 13-13-5.832-13-13zm2 0c0 6.065 4.935 11 11 11s11-4.935 11-11-4.935-11-11-11-11 4.935-11 11zm28.02 26.804 1.961.393 2-10-1.961-.393zm4.435-7.009 2.895 2.205-2.895 2.205 1.211 1.591 4.984-3.796-4.984-3.795zm-6.121-1.59-4.984 3.795 4.984 3.795 1.211-1.591-2.895-2.204 2.895-2.205zm-20.334 10.795h2v-10h-2zm-2 4v6c0 1.103-.897 2-2 2h-2c-1.103 0-2-.897-2-2v-6c0-1.103.897-2 2-2h2c1.103 0 2 .897 2 2zm-2 0h-2v6h2zm4 8h2v-10h-2zm14-8v6c0 1.103-.897 2-2 2h-2c-1.103 0-2-.897-2-2v-6c0-1.103.897-2 2-2h2c1.103 0 2 .897 2 2zm-1.999 6-.001-6h-2v6zm-8.001 2h2v-10h-2zm0-12h2v-10h-2zm6-10h-2v10h2zm6 22h12v-2h-12zm0-4h20v-2h-20zm-2-36h-18v2h18zm0-4h-18v2h18zm-4-4h-10v2h10z" fill="url(#SVGID_1_)"/></svg>