<?xml version="1.0" encoding="UTF-8"?>
<svg xmlns="http://www.w3.org/2000/svg" xmlns:xlink="http://www.w3.org/1999/xlink" width="512" height="512" viewBox="0 0 512 512"><defs><linearGradient id="a" data-name="New Gradient Swatch 1" x1="1.651" y1="502.349" x2="521.037" y2="-17.037" gradientUnits="userSpaceOnUse"><stop offset="0" stop-color="#003f8a"/><stop offset="0.518" stop-color="#00d7df"/><stop offset="1" stop-color="#006df0"/></linearGradient><linearGradient id="b" x1="63.651" y1="564.349" x2="583.037" y2="44.963" xlink:href="#a"/><linearGradient id="c" x1="65.651" y1="566.349" x2="585.037" y2="46.963" xlink:href="#a"/><linearGradient id="d" x1="99.651" y1="600.349" x2="619.037" y2="80.963" xlink:href="#a"/><linearGradient id="e" x1="111.651" y1="612.349" x2="631.037" y2="92.963" xlink:href="#a"/><linearGradient id="f" x1="123.651" y1="624.349" x2="643.037" y2="104.963" xlink:href="#a"/></defs><g><path d="M476,64H299.84A127.831,127.831,0,0,0,200,16a8,8,0,0,0-8,8V64H176V56a8,8,0,0,0-8-8,127.219,127.219,0,0,0-62.26,16.2A7.671,7.671,0,0,0,104,64H36A28.031,28.031,0,0,0,8,92V404a28.031,28.031,0,0,0,28,28H196.18l-9.6,24H152a8,8,0,0,0-8,8v24a8,8,0,0,0,8,8H360a8,8,0,0,0,8-8V464a8,8,0,0,0-8-8H325.42l-9.6-24H476a28.031,28.031,0,0,0,28-28V92A28.031,28.031,0,0,0,476,64ZM208,32.28A112.194,112.194,0,0,1,311.72,136H208ZM171.31,184H279.72A112.007,112.007,0,0,1,94.66,260.65ZM160,64.28V172.69L83.35,249.34A112.007,112.007,0,0,1,160,64.28ZM352,472v8H160v-8ZM203.82,456l9.6-24h85.16l9.6,24ZM488,404a12.01,12.01,0,0,1-12,12H36a12.01,12.01,0,0,1-12-12V392H488Zm0-28H24V92A12.01,12.01,0,0,1,36,80H83.44A127.971,127.971,0,1,0,296,176a8,8,0,0,0-8-8H176V80h16v64a8,8,0,0,0,8,8H320a8,8,0,0,0,8-8,127.233,127.233,0,0,0-17.18-64H476a12.01,12.01,0,0,1,12,12Z" fill="url(#a)"/><path d="M464,272a8,8,0,0,1-8,8H352a8,8,0,0,1-8-8V176a8,8,0,0,1,16,0v88h96A8,8,0,0,1,464,272Z" fill="url(#b)"/><path d="M371,254.247A8,8,0,0,0,382.247,253L400,230.806V240a8,8,0,0,0,14.074,5.207l48-56a8,8,0,1,0-12.148-10.414L416,218.374V208a8,8,0,0,0-14.247-5l-32,40A8,8,0,0,0,371,254.247Z" fill="url(#c)"/><path d="M352,304H456a8,8,0,0,0,0-16H352a8,8,0,0,0,0,16Z" fill="url(#d)"/><path d="M352,328H456a8,8,0,0,0,0-16H352a8,8,0,0,0,0,16Z" fill="url(#e)"/><path d="M352,352H456a8,8,0,0,0,0-16H352a8,8,0,0,0,0,16Z" fill="url(#f)"/></g></svg>
