<svg height="496pt" viewBox="0 0 496 496" width="496pt" xmlns="http://www.w3.org/2000/svg" xmlns:xlink="http://www.w3.org/1999/xlink"><linearGradient id="a" gradientTransform="matrix(8 0 0 -8 -8 504)" gradientUnits="userSpaceOnUse" x1="32" x2="32" y1="1" y2="63"><stop offset="0" stop-color="#9f2fff"/><stop offset="1" stop-color="#0bb1d3"/></linearGradient><path d="m368 120c0-66.167969-53.832031-120-120-120s-120 53.832031-120 120c0 8.214844.839844 16.238281 2.414062 24h-130.414062v352h496v-352h-130.414062c1.574218-7.761719 2.414062-15.785156 2.414062-24zm-16.40625-8h-39.96875c-1.050781-19.0625-5.625-35.824219-11.929688-50.121094 11.738282-5.039062 19.457032-10.671875 23.234376-13.808594 16.222656 16.890626 26.765624 39.195313 28.664062 63.929688zm-51.890625 66.121094c6.304687-14.296875 10.871094-31.058594 11.929687-50.121094h39.96875c-1.898437 24.734375-12.441406 47.039062-28.65625 63.929688-3.792968-3.136719-11.503906-8.761719-23.242187-13.808594zm11.058594 24.613281c-11.496094 8.746094-24.832031 15.152344-39.355469 18.511719 6.722656-7.324219 14.25-16.941406 21.035156-28.75 8.703125 3.632812 14.796875 7.601562 18.320313 10.238281zm0-165.46875c-3.523438 2.628906-9.617188 6.597656-18.320313 10.238281-6.785156-11.808594-14.3125-21.425781-21.035156-28.75 14.523438 3.359375 27.859375 9.765625 39.355469 18.511719zm-54.761719-11.417969c6.214844 6.359375 13.816406 15.398438 20.734375 26.808594-6.167969 1.503906-13.078125 2.632812-20.734375 3.105469zm0 45.90625c10.734375-.585937 20.191406-2.289062 28.441406-4.578125 5.804688 12.792969 10.09375 27.808594 11.175782 44.824219h-39.617188zm0 56.246094h39.617188c-1.082032 16.992188-5.386719 32.007812-11.21875 44.808594-8.238282-2.28125-17.679688-3.984375-28.398438-4.5625zm0 56.246094c7.632812.472656 14.519531 1.59375 20.671875 3.089844-6.902344 11.359374-14.472656 20.390624-20.671875 26.761718zm-36.734375 3.097656c6.167969-1.503906 13.078125-2.632812 20.734375-3.105469v29.90625c-6.214844-6.351562-13.816406-15.390625-20.734375-26.800781zm5.328125 33.902344c-14.523438-3.359375-27.859375-9.765625-39.355469-18.511719 3.523438-2.628906 9.617188-6.597656 18.320313-10.238281 6.785156 11.808594 14.3125 21.425781 21.035156 28.75zm-13.035156-48.421875c-5.804688-12.792969-10.09375-27.800781-11.175782-44.824219h39.617188v40.246094c-10.734375.578125-20.191406 2.289062-28.441406 4.578125zm-11.175782-60.824219c1.082032-16.992188 5.386719-32.007812 11.21875-44.808594 8.238282 2.28125 17.679688 3.984375 28.390626 4.5625v40.246094zm18.945313-59.335938c6.902344-11.359374 14.472656-20.390624 20.671875-26.761718v29.851562c-7.632812-.472656-14.519531-1.59375-20.671875-3.089844zm5.265625-33.910156c-6.722656 7.324219-14.25 16.941406-21.035156 28.75-8.695313-3.632812-14.789063-7.609375-18.320313-10.238281 11.496094-8.746094 24.832031-15.152344 39.355469-18.511719zm-51.53125 29.316406c3.777344 3.136719 11.496094 8.769532 23.234375 13.808594-6.304687 14.296875-10.871094 31.058594-11.929687 50.121094h-39.96875c1.90625-24.734375 12.449218-47.039062 28.664062-63.929688zm11.3125 79.929688c1.050781 19.0625 5.625 35.824219 11.929688 50.121094-11.738282 5.039062-19.457032 10.671875-23.234376 13.808594-16.214843-16.890626-26.757812-39.203126-28.65625-63.929688zm-168.375 32h119c6.574219 18.519531 17.542969 34.921875 31.6875 48h-150.6875zm464 320h-464v-256h172.382812c17.585938 10.121094 37.90625 16 59.617188 16s42.023438-5.878906 59.617188-16h172.382812zm0-320v48h-150.6875c14.152344-13.078125 25.113281-29.480469 31.6875-48zm-448 128h128v-48h-128zm16-32h96v16h-96zm-16 96h128v-48h-128zm16-32h96v16h-96zm128 144h80v-48h-80zm16-32h48v16h-48zm80 32h96v-48h-96zm16-32h64v16h-64zm96 32h80v-48h-80zm16-32h48v16h-48zm-224-112h288v-64h-288zm16-48h256v32h-256zm-16 128h288v-64h-288zm16-48h256v32h-256zm-160 112h48v-96h-48zm16-80h16v64h-16zm48 80h64v-96h-64zm16-80h32v64h-32zm-80-208h16v16h-16zm32 0h16v16h-16zm32 0h16v16h-16zm0 0" fill="url(#a)"/></svg>