<svg height="496pt" viewBox="0 0 496 496" width="496pt" xmlns="http://www.w3.org/2000/svg" xmlns:xlink="http://www.w3.org/1999/xlink"><linearGradient id="a" gradientUnits="userSpaceOnUse" x1="248" x2="248" y1="496" y2="0"><stop offset="0" stop-color="#9f2fff"/><stop offset="1" stop-color="#0bb1d3"/></linearGradient><path d="m192 360c0-30.878906-25.128906-56-56-56s-56 25.121094-56 56 25.128906 56 56 56 56-25.121094 56-56zm-56 40c-22.054688 0-40-17.945312-40-40s17.945312-40 40-40 40 17.945312 40 40-17.945312 40-40 40zm8-400v224h-38.230469l-5.425781 21.527344c-6.976562 2.167968-13.703125 4.945312-20.097656 8.304687l-19.039063-11.375-42.765625 42.757813 11.382813 19.03125c-3.359375 6.402344-6.144531 13.128906-8.296875 20.097656l-21.527344 5.425781v60.46875l21.527344 5.425781c2.160156 6.96875 4.9375 13.6875 8.296875 20.097657l-11.382813 19.03125 42.765625 42.757812 19.039063-11.375c6.394531 3.359375 13.121094 6.144531 20.097656 8.304688l5.425781 21.519531h328.65625l60-40-60-40-192.488281.183594c3.46875-6.527344 6.328125-13.40625 8.527344-20.527344l21.535156-5.425781v-60.46875l-21.527344-5.425781c-2.160156-6.96875-4.9375-13.6875-8.296875-20.097657l11.382813-19.03125-42.765625-42.757812-19.039063 11.375c-6.394531-3.359375-13.121094-6.144531-20.097656-8.304688l-5.425781-21.519531h-6.230469v-208h256v16h-240v96h288v-48h16v304h-191.816406v16h207.816406v-331.3125l-68.6875-68.6875zm296 473.054688v-34.101563l25.574219 17.046875zm-16-41.054688v16h-152v16h152v16h-200v-16h32v-16h-32v-16zm-236.097656-162.015625 4.074218 2.351563 16.3125-9.75 25.125 25.117187-9.75 16.3125 2.359376 4.074219c4.496093 7.773437 7.960937 16.167968 10.3125 24.957031l1.207031 4.546875 18.457031 4.636719v35.53125l-18.457031 4.644531-1.207031 4.546875c-2.351563 8.789063-5.824219 17.183594-10.3125 24.957031l-.832032 1.433594-.335937 2.863281-21.167969.015625c16.007812-19.253906 22.90625-43.679687 19.433594-68.78125-5.503906-39.699218-38.554688-71.257812-78.585938-75.042968-26.261718-2.46875-52.007812 6.707031-70.605468 25.21875-18.601563 18.511718-27.921876 44.191406-25.570313 70.472656 3.609375 40.316406 35.242187 73.558594 75.207031 79.054687 3.832032.527344 8.050782.695313 12.394532.777344l16 .078125.078124-16-16.046874-.078125c-3.929688-.160156-7.144532-.203125-10.25-.632813-32.644532-4.488281-58.496094-31.664062-61.445313-64.632812-1.929687-21.519531 5.695313-42.550781 20.917969-57.695312 15.210937-15.144532 36.25-22.671876 57.824218-20.632813 32.722657 3.097656 59.738282 28.878906 64.242188 61.3125 2.847656 20.582031-2.792969 40.597656-15.882812 56.351563-3.910157 4.703124-4.710938 11.097656-2.09375 16.6875 2.695312 5.753906 8.289062 9.320312 14.589843 9.320312h4.105469v48h-89.769531l-4.644531-18.449219-4.539063-1.214843c-8.816406-2.359376-17.207031-5.832032-24.949219-10.320313l-4.074218-2.351563-16.3125 9.75-25.125-25.117187 9.75-16.3125-2.359376-4.074219c-4.496093-7.773437-7.960937-16.167968-10.3125-24.957031l-1.207031-4.546875-18.457031-4.636719v-35.53125l18.457031-4.644531 1.207031-4.546875c2.351563-8.789063 5.824219-17.183594 10.3125-24.957031l2.359376-4.074219-9.75-16.3125 25.125-25.117187 16.3125 9.75 4.074218-2.351563c7.742188-4.488281 16.140625-7.960937 24.949219-10.320313l4.539063-1.214843 4.644531-18.449219h35.53125l4.644531 18.449219 4.539062 1.214843c8.824219 2.359376 17.222657 5.832032 24.957032 10.320313zm244.097656-242.671875 36.6875 36.6875h-36.6875zm16 84.6875h-256v-64h224v32h32zm-256 32v16h-16v-16zm272 16h-256v-16h256zm-288 16h288v16h-288zm288 48h-16v-16h16zm-288-16h256v16h-256zm224 32c-35.289062 0-64 28.710938-64 64s28.710938 64 64 64 64-28.710938 64-64-28.710938-64-64-64zm-8 16.71875v39.28125h-39.28125c3.394531-20.054688 19.226562-35.886719 39.28125-39.28125zm-39.28125 55.28125h39.28125v39.28125c-20.054688-3.394531-35.886719-19.226562-39.28125-39.28125zm55.28125 39.28125v-94.5625c22.664062 3.824219 40 23.539062 40 47.28125s-17.335938 43.449219-40 47.28125zm-240 80.71875h16v16h-16zm0 0" fill="url(#a)"/></svg>