<svg class="svg-icon" style="width: 1em; height: 1em;vertical-align: middle;fill: currentColor;overflow: hidden;" viewBox="0 0 1024 1024" version="1.1" xmlns="http://www.w3.org/2000/svg"><path d="M1.08544 533.38112c11.32544 272.34304 235.80672 490.61888 510.91456 490.61888s499.58912-218.27584 510.91456-490.61888c0.6144-1.69984 1.08544-3.46112 1.08544-5.36576 0-1.14688-0.4096-2.1504-0.63488-3.19488 0.1024-4.28032 0.63488-8.47872 0.63488-12.8 0-282.29632-229.70368-512-512-512s-512 229.70368-512 512c0 4.32128 0.55296 8.51968 0.63488 12.8-0.22528 1.06496-0.63488 2.048-0.63488 3.19488 0 1.92512 0.47104 3.6864 1.08544 5.36576zM797.47072 727.73632c-42.20928-17.67424-87.51104-31.3344-134.88128-40.67328 5.05856-46.4896 8.02816-94.78144 8.97024-143.03232l159.35488 0c-2.90816 65.72032-14.58176 127.77472-33.44384 183.7056zM862.88384 544.01024l127.488 0c-5.95968 89.78432-36.41344 172.89216-85.21728 242.52416-24.28928-17.05984-50.46272-32.60416-78.62272-46.08 20.64384-59.8016 33.34144-126.17728 36.352-196.44416zM396.45184 713.15456c37.70368-5.89824 76.3904-9.15456 115.54816-9.15456s77.86496 3.25632 115.52768 9.15456c-22.20032 170.72128-70.71744 278.85568-115.52768 278.85568s-93.30688-108.1344-115.54816-278.85568zM445.05088 981.25824c-88.02304-28.22144-162.48832-111.06304-207.42144-223.49824 39.87456-16.7936 82.75968-29.92128 127.67232-38.95296 14.68416 111.86176 41.53344 209.34656 79.74912 262.43072zM392.76544 342.69184c38.95296 6.02112 78.88896 9.3184 119.23456 9.3184s80.2816-3.29728 119.23456-9.3184c5.50912 51.83488 8.76544 108.42112 8.76544 169.30816l-256 0c0-60.88704 3.25632-117.47328 8.76544-169.30816zM639.52896 544.01024c-0.90112 48.80384-3.76832 94.76096-8.31488 137.3184-38.912-6.02112-78.80704-9.3184-119.1936-9.3184s-80.2816 3.29728-119.23456 9.3184c-5.5296-52.03968-7.5776-97.83296-8.31488-137.3184l255.0784 0zM658.71872 718.80704c44.93312 9.03168 87.77728 22.13888 127.67232 38.95296-44.93312 112.41472-119.3984 195.25632-207.42144 223.49824 38.17472-53.08416 65.024-150.56896 79.74912-262.43072zM672.01024 512c0-58.75712-3.25632-118.272-9.40032-175.04256 47.37024-9.33888 92.672-23.04 134.88128-40.67328 21.89312 64.9216 34.52928 138.07616 34.52928 215.71584l-160.01024 0zM658.71872 305.19296c-14.72512-111.88224-41.53344-209.36704-79.7696-262.43072 88.02304 28.22144 162.48832 111.06304 207.42144 223.47776-39.87456 16.7936-82.71872 29.96224-127.65184 38.95296zM627.54816 310.84544c-37.70368 5.87776-76.3904 9.15456-115.54816 9.15456s-77.86496-3.25632-115.54816-9.15456c22.24128-170.72128 70.7584-278.85568 115.54816-278.85568s93.30688 108.1344 115.54816 278.85568zM365.28128 305.19296c-44.93312-9.03168-87.77728-22.13888-127.67232-38.95296 44.93312-112.41472 119.3984-195.25632 207.42144-223.47776-38.17472 53.08416-65.024 150.56896-79.74912 262.43072zM361.41056 336.95744c-6.144 56.77056-9.40032 116.28544-9.40032 175.04256l-160.01024 0c0-77.63968 12.63616-150.79424 34.52928-215.73632 42.20928 17.65376 87.51104 31.3344 134.88128 40.71424zM352.44032 544.01024c0.9216 48.25088 3.91168 96.54272 8.97024 143.07328-47.37024 9.33888-92.672 23.04-134.88128 40.67328-18.8416-55.93088-30.53568-117.98528-33.44384-183.74656l159.35488 0zM197.44768 740.4544c-28.16 13.49632-54.31296 29.02016-78.60224 46.08-48.80384-69.632-79.2576-152.69888-85.21728-242.52416l127.488 0c3.01056 70.26688 15.70816 136.64256 36.31104 196.44416zM138.01472 812.15488c21.9136-15.31904 45.34272-29.51168 70.61504-41.75872 32.13312 79.52384 78.37696 145.53088 133.95968 190.17728-80.83456-30.65856-151.32672-82.18624-204.57472-148.41856zM681.41056 960.55296c55.62368-44.60544 101.82656-110.65344 133.95968-190.17728 25.27232 12.288 48.70144 26.43968 70.61504 41.75872-53.248 66.27328-123.74016 117.80096-204.57472 148.41856zM864.01024 512c0-82.14528-13.70112-159.58016-37.43744-228.4544 28.16-13.49632 54.33344-29.02016 78.62272-46.08 54.53824 77.88544 86.81472 172.4416 86.81472 274.5344l-128 0zM886.00576 211.84512c-21.9136 15.31904-45.34272 29.47072-70.61504 41.75872-32.13312-79.52384-78.37696-145.57184-133.95968-190.17728 80.7936 30.65856 151.28576 82.18624 204.57472 148.41856zM342.58944 63.44704c-55.62368 44.60544-101.82656 110.65344-133.95968 190.17728-25.31328-12.288-48.70144-26.46016-70.61504-41.79968 53.248-66.23232 123.74016-117.76 204.57472-148.3776zM118.84544 237.4656c24.24832 17.05984 50.44224 32.58368 78.60224 46.08-23.73632 68.87424-37.43744 146.30912-37.43744 228.4544l-128 0c0-102.07232 32.29696-196.64896 86.85568-274.5344z"  /></svg>