<svg width="39" height="41" viewBox="0 0 39 41" fill="none" xmlns="http://www.w3.org/2000/svg">
<mask id="mask0" mask-type="alpha" maskUnits="userSpaceOnUse" x="0" y="0" width="39" height="41">
<path fill-rule="evenodd" clip-rule="evenodd" d="M3.2168 17.6484L0 17.9297C0.046875 19.6523 0.515625 21.1992 1.40625 22.5703C2.30859 23.9297 3.54492 24.9492 5.11523 25.6289C6.69727 26.3086 8.6543 26.6484 10.9863 26.6484C12.8262 26.6484 14.4785 26.3145 15.9434 25.6465C17.4199 24.9668 18.5508 24.0234 19.3359 22.8164C19.4636 22.6182 19.5809 22.418 19.6878 22.2158L24.4199 29.293V40.209H27.8301V29.293L38.1133 14.4395H34.1406L29.1484 22.0156C28.0469 23.7031 27.1094 25.2207 26.3359 26.5684C25.5273 25.1152 24.6543 23.6621 23.7168 22.209L20.199 16.8289C20.0216 16.2766 19.769 15.7588 19.4414 15.2754C18.7266 14.209 17.6191 13.3301 16.1191 12.6387C15.0879 12.1699 13.1836 11.625 10.4062 11.0039C7.64062 10.3711 5.92969 9.75586 5.27344 9.1582C4.60547 8.56055 4.27148 7.79883 4.27148 6.87305C4.27148 5.80664 4.74023 4.89844 5.67773 4.14844C6.62695 3.38672 8.13281 3.00586 10.1953 3.00586C12.1758 3.00586 13.6699 3.42188 14.6777 4.25391C15.6973 5.08594 16.2949 6.31641 16.4707 7.94531L19.7402 7.69922C19.6816 6.1875 19.2598 4.83398 18.4746 3.63867C17.6895 2.44336 16.5645 1.54102 15.0996 0.931641C13.6465 0.310547 11.9648 0 10.0547 0C8.32031 0 6.74414 0.292969 5.32617 0.878906C3.9082 1.46484 2.83008 2.32617 2.0918 3.46289C1.35352 4.58789 0.984375 5.80078 0.984375 7.10156C0.984375 8.28516 1.2832 9.35742 1.88086 10.3184C2.49023 11.2676 3.41016 12.0645 4.64062 12.709C5.58984 13.2129 7.24805 13.752 9.61523 14.3262C11.9824 14.8887 13.5117 15.3047 14.2031 15.5742C14.8479 15.8195 15.3837 16.1004 15.8106 16.417L17.1415 18.4076C17.1982 18.6633 17.2266 18.9317 17.2266 19.2129C17.2266 20.0098 16.9805 20.748 16.4883 21.4277C16.0078 22.0957 15.2695 22.623 14.2734 23.0098C13.2773 23.3965 12.1289 23.5898 10.8281 23.5898C9.36328 23.5898 8.04492 23.3379 6.87305 22.834C5.70117 22.3184 4.83398 21.6504 4.27148 20.8301C3.7207 19.998 3.36914 18.9375 3.2168 17.6484Z" fill="black"/>
</mask>
<g mask="url(#mask0)">
<path d="M1 -3H37V42H1V-3Z" fill="url(#paint0_linear)"/>
</g>
<defs>
<linearGradient id="paint0_linear" x1="17.2581" y1="-3" x2="17.2581" y2="42" gradientUnits="userSpaceOnUse">
<stop stop-color="#593EFF"/>
<stop offset="1" stop-color="#FF00A8"/>
</linearGradient>
</defs>
</svg>
