<svg id="Layer_5" enable-background="new 0 0 64 64" height="512" viewBox="0 0 64 64" width="512" xmlns="http://www.w3.org/2000/svg" xmlns:xlink="http://www.w3.org/1999/xlink"><linearGradient id="SVGID_1_" gradientUnits="userSpaceOnUse" x1="32" x2="32" y1="63" y2="1"><stop offset="0" stop-color="#9f2fff"/><stop offset="1" stop-color="#0bb1d3"/></linearGradient><path d="m35 22.854v.146h-2v-.146c0-.471-.384-.854-.854-.854h-.291c-.471 0-.855.383-.855.854 0 .326.181.619.473.764l1.949.975c.974.487 1.578 1.465 1.578 2.553 0 1.574-1.28 2.854-2.854 2.854h-.291c-1.575 0-2.855-1.28-2.855-2.854v-.146h2v.146c0 .471.384.854.854.854h.291c.471 0 .855-.383.855-.854 0-.326-.181-.619-.473-.764l-1.949-.975c-.974-.487-1.578-1.465-1.578-2.553 0-1.574 1.28-2.854 2.854-2.854h.291c1.575 0 2.855 1.28 2.855 2.854zm2 7.146h4v-2h-2v-2h2v-2h-2v-2h2v-2h-4zm12-7v4c0 1.654-1.346 3-3 3s-3-1.346-3-3v-4c0-1.654 1.346-3 3-3s3 1.346 3 3zm-2 0c0-.551-.448-1-1-1s-1 .449-1 1v4c0 .551.448 1 1 1s1-.449 1-1zm6 2c0 7.72-6.28 14-14 14s-14-6.28-14-14 6.28-14 14-14 14 6.28 14 14zm-2 0c0-6.617-5.383-12-12-12s-12 5.383-12 12 5.383 12 12 12 12-5.383 12-12zm9.509-4.558 2.491.84v7.437l-2.491.84c-.56 2.666-1.591 5.162-3.073 7.435l1.164 2.349-5.258 5.257-2.35-1.164c-1.852 1.208-3.872 2.103-6.006 2.703-.062 1.32-.975 2.412-2.206 2.745.139.346.22.721.22 1.116v9c0 2.206-1.794 4-4 4s-4-1.794-4-4h-26c-1.103 0-2-.897-2-2 0-2.206 1.794-4 4-4h2v-2h-7c-2.757 0-5-2.243-5-5v-24c0-2.757 2.243-5 5-5h12.53c.542-1.392 1.211-2.73 2.035-3.993l-1.165-2.348 5.258-5.259 2.349 1.164c2.271-1.481 4.767-2.513 7.436-3.074l.839-2.49h7.436l.84 2.491c2.669.561 5.164 1.593 7.436 3.074l2.348-1.165 5.258 5.258-1.164 2.349c1.482 2.273 2.513 4.769 3.073 7.435zm-57.509 1.558v19h18.059l-1.659-1.659 1.164-2.349c-1.482-2.273-2.514-4.769-3.073-7.435l-2.491-.839v-7.437l2.491-.84c.103-.489.238-.965.372-1.442h-11.863c-1.654.001-3 1.347-3 3.001zm3 27h29.184c.014-.038.021-.078.036-.116-1.231-.334-2.144-1.425-2.206-2.745-2.134-.601-4.154-1.496-6.006-2.703l-2.35 1.164-1.599-1.6h-20.059v3c0 1.654 1.346 3 3 3zm49-24c0-8.822-7.178-16-16-16s-16 7.178-16 16 7.178 16 16 16 16-7.178 16-16zm-24 26v2h4v-2zm-16 2h14v-2h-14zm20 4v-2h-24c-1.103 0-2 .897-2 2zm6-7c0-.551-.448-1-1-1h-2c-.552 0-1 .449-1 1v9c0 1.103.897 2 2 2s2-.897 2-2zm2-4v-3.464c-1.289.294-2.624.464-4 .464s-2.711-.17-4-.464v3.464c0 .551.448 1 1 1h2 2 2c.552 0 1-.449 1-1zm18-23.282-2.238-.755-.105-.58c-.512-2.801-1.587-5.402-3.197-7.732l-.334-.485 1.045-2.109-3.228-3.227-2.11 1.045-.484-.335c-2.328-1.608-4.93-2.684-7.732-3.197l-.58-.106-.755-2.237h-4.564l-.754 2.237-.58.106c-2.803.513-5.404 1.588-7.732 3.197l-.484.335-2.11-1.045-3.227 3.227 1.045 2.109-.334.485c-1.61 2.33-2.686 4.932-3.197 7.732l-.105.58-2.24.755v4.563l2.238.755.105.58c.512 2.8 1.587 5.401 3.197 7.732l.334.485-1.045 2.109 2.058 2.058h.113v.113l1.057 1.057 2.11-1.045.484.335c1.645 1.137 3.444 1.995 5.349 2.591v-2.1c-6.979-2.48-12-9.132-12-16.951 0-9.925 8.075-18 18-18s18 8.075 18 18c0 7.819-5.021 14.471-12 16.95v2.1c1.905-.596 3.703-1.454 5.349-2.591l.484-.335 2.11 1.045 3.227-3.227-1.045-2.109.334-.485c1.61-2.331 2.686-4.933 3.197-7.732l.105-.58 2.239-.754zm-48 24.282h2v-2h-2zm-8 0h2v-2h-2zm4 0h2v-2h-2zm4-16h-8v-10h8zm-2-8h-4v6h4zm4 10h-10v2h10zm0 4h-10v2h10z" fill="url(#SVGID_1_)"/></svg>