<svg id="Capa_1" enable-background="new 0 0 512 512" height="512" viewBox="0 0 512 512" width="512" xmlns="http://www.w3.org/2000/svg" xmlns:xlink="http://www.w3.org/1999/xlink"><linearGradient id="SVGID_1_" gradientUnits="userSpaceOnUse" x1="256" x2="256" y1="496" y2="16"><stop offset="0" stop-color="#009efd"/><stop offset="1" stop-color="#2af598"/></linearGradient><g><g><path d="m196 416h120v-40h-120zm60-320c-99.252 0-180 80.748-180 180h40c0-77.196 62.804-140 140-140 31.4 0 60.419 10.392 83.799 27.916l-57.947 57.947c-7.833-3.755-16.601-5.863-25.852-5.863-33.084 0-60 26.916-60 60s26.916 60 60 60 60-26.916 60-60c0-9.251-2.108-18.019-5.864-25.852l57.947-57.947c17.525 23.38 27.917 52.398 27.917 83.799h40c0-99.252-80.748-180-180-180zm0 200c-11.028 0-20-8.972-20-20s8.972-20 20-20 20 8.972 20 20-8.972 20-20 20zm182.012-203.682c-48.081-49.214-112.721-76.318-182.012-76.318s-133.931 27.104-182.012 76.318c-47.712 48.837-73.988 114.069-73.988 183.682 0 44.002 10.25 87.015 29.641 124.391 19.358 37.313 47.912 69.218 82.574 92.264l5.031 3.345h277.508l5.031-3.345c34.662-23.046 63.216-54.95 82.574-92.264 19.391-37.376 29.641-80.389 29.641-124.391 0-69.613-26.276-134.845-73.988-183.682zm-55.491 363.682h-253.042c-56.948-40.204-89.479-105.458-89.479-180 0-123.365 94.879-220 216-220s216 96.635 216 220c0 74.542-32.531 139.796-89.479 180z" fill="url(#SVGID_1_)"/></g></g></svg>